<svg xmlns="http://www.w3.org/2000/svg" width="1600" height="1240" viewBox="0 0 1600 1240" role="img" aria-labelledby="title desc">
  <title id="title">eatbid 분석 상세 신뢰 중심 리서치 화면</title>
  <desc id="desc">기관의 과거 낙찰 이력과 정확한 원자료를 같은 화면에서 검증하고, 데이터 범위와 한계를 확인한 뒤 사용자 후보를 별도로 관리하는 데스크톱 분석 화면이다.</desc>
  <defs>
    <style>
      .t { font-family: Pretendard, Inter, Arial, sans-serif; fill: #17191c; }
      .muted { fill: #59636e; }
      .faint { fill: #65717d; }
      .title { font-size: 25px; font-weight: 720; }
      .h2 { font-size: 19px; font-weight: 700; }
      .h3 { font-size: 15px; font-weight: 700; }
      .body { font-size: 14px; font-weight: 500; }
      .small { font-size: 13px; font-weight: 500; }
      .micro { font-size: 12px; font-weight: 520; }
      .num { font-size: 22px; font-weight: 720; }
      .mono { font-family: Inter, Arial, sans-serif; font-variant-numeric: tabular-nums; }
    </style>
  </defs>

  <rect width="1600" height="1240" fill="#f4f5f6"/>

  <!-- stable product navigation -->
  <rect x="0" y="0" width="88" height="1240" fill="#ffffff"/>
  <line x1="87.5" y1="0" x2="87.5" y2="1240" stroke="#dfe3e7"/>
  <rect x="20" y="20" width="48" height="48" rx="10" fill="#17191c"/>
  <text x="44" y="51" text-anchor="middle" class="t h3" style="fill:#ffffff">e</text>
  <g class="t micro" text-anchor="middle">
    <rect x="10" y="96" width="68" height="64" rx="8" fill="#eef4fb"/>
    <circle cx="44" cy="118" r="9" fill="#2f6fbb"/>
    <path d="M39 118h10M44 113v10" stroke="#ffffff" stroke-width="1.8" stroke-linecap="round"/>
    <text x="44" y="146" style="fill:#245f9f">투찰 업무</text>
    <circle cx="44" cy="203" r="10" fill="#eef0f2"/>
    <path d="M39 199h10M39 203h10M39 207h7" stroke="#7f8994" stroke-width="1.7" stroke-linecap="round"/>
    <text x="44" y="230" class="muted">복기</text>
    <circle cx="44" cy="282" r="10" fill="#eef0f2"/>
    <path d="M38 287l5-7 4 3 4-8" fill="none" stroke="#7f8994" stroke-width="1.7" stroke-linecap="round" stroke-linejoin="round"/>
    <text x="44" y="309" class="muted">성과</text>
  </g>

  <!-- compact global header -->
  <rect x="88" y="0" width="1512" height="72" fill="#ffffff"/>
  <line x1="88" y1="71.5" x2="1600" y2="71.5" stroke="#dfe3e7"/>
  <text x="120" y="29" class="t micro muted">투찰 업무  /  김해율하유치원 축산물  /  분석</text>
  <text x="120" y="54" class="t h2">기관 분석</text>
  <circle cx="1392" cy="36" r="5" fill="#2f6fbb"/>
  <text x="1405" y="40" class="t small muted">마지막 검증 10:42</text>
  <rect x="1530" y="23" width="38" height="28" rx="6" fill="#eef0f2"/>
  <text x="1549" y="42" text-anchor="middle" class="t micro">···</text>

  <!-- fixed target context -->
  <text x="120" y="102" class="t micro muted">현재 판단 대상</text>
  <text x="120" y="133" class="t title">김해율하유치원 · 축산물 · 공고 2차</text>
  <text x="120" y="157" class="t body muted">사업자 B  ·  마감 09/02 11:00  ·  workspace 가나다유통</text>
  <rect x="521" y="112" width="108" height="24" rx="6" fill="#eef0f2"/>
  <text x="575" y="129" text-anchor="middle" class="t micro muted">공고 revision 3</text>
  <text x="1174" y="110" class="t micro muted">현재 공고 확인</text>
  <text x="1174" y="134" class="t body mono">10:42 KST</text>
  <text x="1282" y="110" class="t micro muted">과거 분석 산출</text>
  <text x="1282" y="134" class="t body mono">03:10 KST</text>
  <rect x="1414" y="106" width="154" height="38" rx="7" fill="#ffffff" stroke="#bcc3ca"/>
  <text x="1491" y="130" text-anchor="middle" class="t body">공고 원문 보기 ↗</text>

  <!-- consequential warning stays visible -->
  <rect x="120" y="180" width="1448" height="46" rx="7" fill="#fff6dc" stroke="#f1d68b"/>
  <circle cx="143" cy="203" r="10" fill="#d98900"/>
  <text x="143" y="207" text-anchor="middle" class="t small" style="fill:#ffffff;font-weight:700">!</text>
  <text x="162" y="207" class="t body" style="font-weight:700">정정공고 확인 필요</text>
  <text x="305" y="207" class="t small muted">기존 결정은 revision 2 기준입니다. 현재 revision의 원문 사실을 확인한 뒤 새 결정을 기록하세요.</text>

  <!-- unified evidence workbench -->
  <rect x="120" y="246" width="1448" height="964" rx="9" fill="#ffffff" stroke="#d9dde1"/>
  <line x1="1172" y1="246" x2="1172" y2="1210" stroke="#d9dde1"/>

  <!-- plain-language trust status -->
  <rect x="120" y="246" width="1052" height="70" rx="9" fill="#fafbfc"/>
  <circle cx="151" cy="271" r="8" fill="#697581"/>
  <path d="M147 271l3 3 5-6" fill="none" stroke="#ffffff" stroke-width="1.6" stroke-linecap="round" stroke-linejoin="round"/>
  <text x="168" y="275" class="t body" style="font-weight:700">분석 표본 34건 · 원본 근거 연결 34건</text>
  <text x="435" y="275" class="t small muted">수집 대사 완료 · 결과 미확인 0 · 마지막 원본 관측 10:38 KST</text>
  <text x="152" y="299" class="t small muted">동일 기관 · 축산물 · 하한 90 · 같은 방식 · 2024.02–2026.08</text>
  <text x="1140" y="276" text-anchor="end" class="t small" style="fill:#245f9f">분석 기준 상세</text>
  <text x="1140" y="299" text-anchor="end" class="t micro muted">출처·포함 조건·계산 버전·원자료</text>

  <!-- one evidence surface, one active perspective -->
  <line x1="120" y1="316" x2="1172" y2="316" stroke="#d9dde1"/>
  <text x="152" y="348" class="t body" style="font-weight:700">기관 시간 이력</text>
  <text x="278" y="348" class="t body muted">비교집단 분포</text>
  <text x="404" y="348" class="t body muted">전체 원자료</text>
  <line x1="152" y1="364" x2="240" y2="364" stroke="#17191c" stroke-width="2"/>
  <line x1="120" y1="365" x2="1172" y2="365" stroke="#e5e8eb"/>

  <text x="152" y="402" class="t micro muted">기관 이력 · 정확한 구매기관</text>
  <text x="152" y="432" class="t h2">김해율하유치원의 이전 낙찰 투찰률 34건</text>
  <text x="152" y="455" class="t small muted">차트 점을 선택하면 같은 AuctionAttempt의 표 행과 eaT 원문 근거가 함께 열립니다.</text>
  <rect x="927" y="394" width="74" height="27" rx="6" fill="#17191c"/>
  <text x="964" y="412" text-anchor="middle" class="t micro" style="fill:#ffffff">전체 범위</text>
  <rect x="1009" y="394" width="84" height="27" rx="6" fill="#ffffff" stroke="#cbd1d6"/>
  <text x="1051" y="412" text-anchor="middle" class="t micro muted">중심 확대</text>

  <!-- truthful full-range chart -->
  <text x="152" y="491" class="t micro muted">관측 낙찰 투찰률 %</text>
  <line x1="190" y1="519" x2="1104" y2="519" stroke="#e5e8eb"/>
  <line x1="190" y1="572" x2="1104" y2="572" stroke="#edf0f2"/>
  <line x1="190" y1="625" x2="1104" y2="625" stroke="#cbd1d6"/>
  <text x="1113" y="523" class="t micro faint mono">90.60</text>
  <text x="1113" y="576" class="t micro faint mono">90.25</text>
  <text x="1113" y="629" class="t micro faint mono">89.90</text>
  <g fill="#697581">
    <circle cx="204" cy="597" r="3.5"/><circle cx="231" cy="606" r="3.5"/><circle cx="258" cy="596" r="3.5"/>
    <circle cx="285" cy="603" r="3.5"/><circle cx="312" cy="594" r="3.5"/><circle cx="339" cy="528" r="3.5"/>
    <circle cx="365" cy="600" r="3.5"/><circle cx="392" cy="592" r="3.5"/><circle cx="419" cy="609" r="3.5"/>
    <circle cx="446" cy="599" r="3.5"/><circle cx="473" cy="611" r="3.5"/><circle cx="500" cy="601" r="3.5"/>
    <circle cx="527" cy="590" r="3.5"/><circle cx="554" cy="607" r="3.5"/><circle cx="581" cy="597" r="3.5"/>
    <circle cx="608" cy="604" r="3.5"/><circle cx="635" cy="593" r="3.5"/><circle cx="661" cy="606" r="3.5"/>
    <circle cx="688" cy="600" r="3.5"/><circle cx="715" cy="609" r="3.5"/><circle cx="742" cy="595" r="3.5"/>
    <circle cx="769" cy="602" r="3.5"/><circle cx="796" cy="592" r="3.5"/><circle cx="823" cy="604" r="3.5"/>
    <circle cx="850" cy="597" r="3.5"/><circle cx="877" cy="613" r="3.5"/><circle cx="904" cy="588" r="3.5"/>
    <circle cx="931" cy="601" r="3.5"/><circle cx="957" cy="593" r="3.5"/><circle cx="984" cy="605" r="3.5"/>
    <circle cx="1011" cy="596" r="3.5"/><circle cx="1038" cy="603" r="3.5"/><circle cx="1065" cy="599" r="3.5"/>
  </g>
  <circle cx="1092" cy="601" r="7" fill="#ffffff" stroke="#2f6fbb" stroke-width="2"/>
  <line x1="1092" y1="594" x2="1082" y2="574" stroke="#2f6fbb"/>
  <rect x="976" y="536" width="132" height="38" rx="5" fill="#ffffff" stroke="#7f8994"/>
  <text x="988" y="552" class="t micro muted">선택됨 · 2026.08.25</text>
  <text x="988" y="568" class="t small mono" style="font-weight:700">90.060%</text>
  <text x="351" y="525" class="t micro muted">90.543%</text>

  <!-- participation is a separate measure band -->
  <g fill="#cfd5db">
    <rect x="200" y="642" width="8" height="16" rx="1"/><rect x="274" y="647" width="8" height="11" rx="1"/>
    <rect x="348" y="639" width="8" height="19" rx="1"/><rect x="422" y="649" width="8" height="9" rx="1"/>
    <rect x="496" y="635" width="8" height="23" rx="1"/><rect x="570" y="643" width="8" height="15" rx="1"/>
    <rect x="644" y="631" width="8" height="27" rx="1"/><rect x="718" y="640" width="8" height="18" rx="1"/>
    <rect x="792" y="645" width="8" height="13" rx="1"/><rect x="866" y="636" width="8" height="22" rx="1"/>
    <rect x="940" y="642" width="8" height="16" rx="1"/><rect x="1014" y="648" width="8" height="10" rx="1"/>
    <rect x="1088" y="633" width="8" height="25" rx="1"/>
  </g>
  <text x="152" y="656" class="t micro faint">참여 수</text>
  <text x="200" y="678" class="t micro faint mono">2024.02</text>
  <text x="376" y="678" class="t micro faint mono">2024.08</text>
  <text x="552" y="678" class="t micro faint mono">2025.02</text>
  <text x="728" y="678" class="t micro faint mono">2025.08</text>
  <text x="904" y="678" class="t micro faint mono">2026.02</text>
  <text x="1060" y="678" class="t micro faint mono">2026.08</text>

  <!-- six factual rows by default -->
  <text x="152" y="714" class="t h3">연결된 낙찰 기록</text>
  <text x="1140" y="714" text-anchor="end" class="t small" style="fill:#245f9f">전체 34건 보기</text>
  <rect x="152" y="730" width="988" height="34" fill="#f5f6f7"/>
  <text x="168" y="752" class="t micro muted">개찰일</text>
  <text x="292" y="752" class="t micro muted">기초금액</text>
  <text x="441" y="752" class="t micro muted">하한</text>
  <text x="540" y="752" class="t micro muted">관측 낙찰 투찰률</text>
  <text x="720" y="752" class="t micro muted">낙찰업체</text>
  <text x="965" y="752" class="t micro muted">참여</text>
  <text x="1106" y="752" class="t micro muted">근거</text>
  <rect x="152" y="764" width="988" height="38" fill="#eef1f4"/>
  <rect x="152" y="764" width="3" height="38" fill="#2f6fbb"/>
  <g class="t small">
    <text x="168" y="788" class="mono">2026.08.25 · 선택됨</text><text x="390" y="788" text-anchor="end" class="mono">2,687,330</text>
    <text x="470" y="788" text-anchor="end" class="mono">90</text><text x="646" y="788" text-anchor="end" class="mono" style="font-weight:700">90.060%</text>
    <text x="720" y="788">(주)늘찬푸드</text><text x="1010" y="788" text-anchor="end" class="mono">36곳</text><text x="1106" y="788" style="fill:#245f9f">원문 ↗</text>
    <line x1="152" y1="803" x2="1140" y2="803" stroke="#e5e8eb"/>
    <text x="168" y="827" class="mono">2026.07.28</text><text x="390" y="827" text-anchor="end" class="mono">2,492,340</text>
    <text x="470" y="827" text-anchor="end" class="mono">90</text><text x="646" y="827" text-anchor="end" class="mono" style="font-weight:700">90.027%</text>
    <text x="720" y="827">도도유통</text><text x="1010" y="827" text-anchor="end" class="mono">24곳</text><text x="1106" y="827" style="fill:#245f9f">원문 ↗</text>
    <line x1="152" y1="842" x2="1140" y2="842" stroke="#e5e8eb"/>
    <text x="168" y="866" class="mono">2026.06.19</text><text x="390" y="866" text-anchor="end" class="mono">2,210,850</text>
    <text x="470" y="866" text-anchor="end" class="mono">90</text><text x="646" y="866" text-anchor="end" class="mono" style="font-weight:700">90.005%</text>
    <text x="720" y="866">가나푸드</text><text x="1010" y="866" text-anchor="end" class="mono">22곳</text><text x="1106" y="866" style="fill:#245f9f">원문 ↗</text>
    <line x1="152" y1="881" x2="1140" y2="881" stroke="#e5e8eb"/>
    <text x="168" y="905" class="mono">2026.05.23</text><text x="390" y="905" text-anchor="end" class="mono">2,841,200</text>
    <text x="470" y="905" text-anchor="end" class="mono">90</text><text x="646" y="905" text-anchor="end" class="mono" style="font-weight:700">90.118%</text>
    <text x="720" y="905">한빛축산</text><text x="1010" y="905" text-anchor="end" class="mono">31곳</text><text x="1106" y="905" style="fill:#245f9f">원문 ↗</text>
    <line x1="152" y1="920" x2="1140" y2="920" stroke="#e5e8eb"/>
    <text x="168" y="944" class="mono">2026.04.26</text><text x="390" y="944" text-anchor="end" class="mono">2,306,700</text>
    <text x="470" y="944" text-anchor="end" class="mono">90</text><text x="646" y="944" text-anchor="end" class="mono" style="font-weight:700">89.992%</text>
    <text x="720" y="944">율하미트</text><text x="1010" y="944" text-anchor="end" class="mono">28곳</text><text x="1106" y="944" style="fill:#245f9f">원문 ↗</text>
    <line x1="152" y1="959" x2="1140" y2="959" stroke="#e5e8eb"/>
    <text x="168" y="983" class="mono">2026.03.18</text><text x="390" y="983" text-anchor="end" class="mono">2,556,140</text>
    <text x="470" y="983" text-anchor="end" class="mono">90</text><text x="646" y="983" text-anchor="end" class="mono" style="font-weight:700">90.074%</text>
    <text x="720" y="983">미소유통</text><text x="1010" y="983" text-anchor="end" class="mono">27곳</text><text x="1106" y="983" style="fill:#245f9f">원문 ↗</text>
  </g>

  <!-- selected observation inspector: citation is an action, not decoration -->
  <rect x="152" y="1011" width="988" height="117" rx="6" fill="#fafbfc" stroke="#d9dde1"/>
  <text x="168" y="1037" class="t micro muted">선택한 기록 · 차트 점과 같은 AuctionAttempt</text>
  <text x="168" y="1066" class="t h3">2026.08.25 김해율하유치원 축산물 개찰결과</text>
  <text x="168" y="1091" class="t small muted">관측 낙찰 투찰률 90.060% · 낙찰업체 (주)늘찬푸드 · 참여 36곳</text>
  <text x="168" y="1114" class="t micro muted">해당 회차 source revision 1 · 불변 raw 객체 보존 10:38 KST</text>
  <rect x="952" y="1040" width="164" height="38" rx="6" fill="#ffffff" stroke="#9fa8b1"/>
  <text x="1034" y="1064" text-anchor="middle" class="t body">보존 원본에서 열기 ↗</text>
  <text x="1116" y="1114" text-anchor="end" class="t micro" style="fill:#245f9f">eaT 원문 · 원자료 계보</text>
  <text x="152" y="1172" class="t micro faint">차트는 패턴을, 표와 원문은 정확한 값을 확인하기 위한 것입니다. 선택해도 후보는 바뀌지 않습니다.</text>

  <!-- decision rail: candidate and practical analysis controls -->
  <text x="1204" y="278" class="t micro muted">판단 패널</text>
  <text x="1204" y="311" class="t h2">검토 중인 후보 A</text>
  <text x="1204" y="335" class="t small muted">사용자 입력 후보 C-4 · 공고 R-3 기준</text>
  <line x1="1204" y1="360" x2="1536" y2="360" stroke="#d9dde1"/>
  <text x="1204" y="391" class="t micro muted">투찰률 %</text>
  <text x="1204" y="426" class="t num mono">90.02015</text>
  <rect x="1454" y="399" width="82" height="26" rx="6" fill="#eef0f2"/>
  <text x="1495" y="417" text-anchor="middle" class="t micro muted">저장됨</text>
  <rect x="1204" y="448" width="332" height="42" rx="6" fill="#ffffff" stroke="#cbd1d6"/>
  <rect x="1220" y="459" width="34" height="20" rx="10" fill="#cfd5db"/>
  <circle cx="1230" cy="469" r="7" fill="#ffffff"/>
  <text x="1266" y="473" class="t small">후보 겹치기: 끔</text>

  <text x="1204" y="532" class="t h3">기관 이력 필터</text>
  <text x="1204" y="553" class="t micro muted">현재 공고 조건은 바뀌지 않습니다.</text>
  <text x="1204" y="581" class="t small muted">품목</text>
  <rect x="1204" y="596" width="158" height="38" rx="6" fill="#17191c"/>
  <text x="1283" y="620" text-anchor="middle" class="t body" style="fill:#ffffff;font-weight:700">축산</text>
  <rect x="1378" y="596" width="158" height="38" rx="6" fill="#ffffff" stroke="#cbd1d6"/>
  <text x="1457" y="620" text-anchor="middle" class="t body">공산</text>
  <rect x="1204" y="644" width="158" height="38" rx="6" fill="#ffffff" stroke="#cbd1d6"/>
  <text x="1283" y="668" text-anchor="middle" class="t body">농산</text>
  <rect x="1378" y="644" width="158" height="38" rx="6" fill="#ffffff" stroke="#cbd1d6"/>
  <text x="1457" y="668" text-anchor="middle" class="t body">수산</text>

  <text x="1204" y="721" class="t small muted">기간</text>
  <rect x="1204" y="736" width="104" height="36" rx="6" fill="#ffffff" stroke="#cbd1d6"/>
  <text x="1256" y="759" text-anchor="middle" class="t small">12개월</text>
  <rect x="1318" y="736" width="104" height="36" rx="6" fill="#ffffff" stroke="#cbd1d6"/>
  <text x="1370" y="759" text-anchor="middle" class="t small">24개월</text>
  <rect x="1432" y="736" width="104" height="36" rx="6" fill="#17191c"/>
  <text x="1484" y="759" text-anchor="middle" class="t small" style="fill:#ffffff;font-weight:700">전체</text>

  <text x="1204" y="787" class="t small muted">현재 범위</text>
  <line x1="1204" y1="802" x2="1536" y2="802" stroke="#d9dde1"/>
  <text x="1204" y="830" class="t small muted">구매기관</text>
  <text x="1518" y="830" text-anchor="end" class="t small">김해율하유치원</text>
  <text x="1204" y="860" class="t small muted">낙찰하한</text>
  <text x="1518" y="860" text-anchor="end" class="t small mono">90%</text>
  <text x="1204" y="890" class="t small muted">비교 방식</text>
  <text x="1518" y="890" text-anchor="end" class="t small">동일 방식</text>
  <text x="1204" y="920" class="t small muted">현재 결과</text>
  <text x="1518" y="920" text-anchor="end" class="t small mono" style="font-weight:700">34건</text>

  <rect x="1204" y="947" width="332" height="42" rx="6" fill="#ffffff" stroke="#8d969f"/>
  <text x="1370" y="974" text-anchor="middle" class="t body">분석 조건 적용</text>
  <text x="1204" y="1012" class="t micro muted">변경 시 검증된 새 분석 결과를 불러옵니다.</text>

  <text x="1204" y="1055" class="t h3">revision 확인</text>
  <text x="1204" y="1083" class="t small muted">현재 공고 R-3</text>
  <text x="1518" y="1083" text-anchor="end" class="t small" style="fill:#a55b00">원문 확인 미완료</text>
  <text x="1204" y="1113" class="t small muted">결정 D-2 · 공고 R-2 기준</text>
  <text x="1518" y="1113" text-anchor="end" class="t small" style="fill:#a55b00">stale · 재확인</text>

  <rect x="1204" y="1142" width="158" height="42" rx="6" fill="#f1f3f5"/>
  <text x="1283" y="1169" text-anchor="middle" class="t body">후보 수정</text>
  <rect x="1372" y="1142" width="164" height="42" rx="6" fill="#ffffff" stroke="#8d969f"/>
  <text x="1454" y="1169" text-anchor="middle" class="t body">검토 화면으로 돌아가기</text>
</svg>
